<?xml version="1.0" standalone="no"?>
<!DOCTYPE svg PUBLIC "-//W3C//DTD SVG 20010904//EN"
 "http://www.w3.org/TR/2001/REC-SVG-20010904/DTD/svg10.dtd">
<svg version="1.0" xmlns="http://www.w3.org/2000/svg"
 width="700.000000pt" height="700.000000pt" viewBox="0 0 700.000000 700.000000"
 preserveAspectRatio="xMidYMid meet">
<metadata>
Created by potrace 1.11, written by Peter Selinger 2001-2013
</metadata>
<g transform="translate(0.000000,700.000000) scale(0.100000,-0.100000)"
fill="#000000" stroke="none">
<path d="M2825 6979 c-125 -33 -220 -85 -313 -172 -143 -135 -229 -337 -235
-552 -3 -69 25 -245 43 -270 3 -5 15 -32 25 -60 59 -160 245 -382 520 -620
324 -281 513 -438 547 -456 45 -23 121 -27 165 -8 29 13 142 106 517 428 354
303 510 497 589 731 34 100 49 263 33 345 -2 11 -7 39 -11 63 -33 200 -186
413 -363 505 -119 62 -176 77 -317 82 -175 7 -332 -50 -459 -167 -67 -61 -69
-62 -85 -42 -28 35 -130 113 -180 138 -101 51 -170 68 -291 71 -86 2 -133 -2
-185 -16z m258 -407 c22 -9 63 -37 91 -63 49 -45 74 -85 145 -240 26 -56 38
-69 80 -92 87 -48 193 -30 254 42 14 17 35 57 47 88 44 119 117 215 194 255
84 43 212 30 288 -29 82 -64 131 -178 127 -297 -4 -144 -71 -260 -258 -446
-125 -125 -178 -174 -281 -260 -30 -25 -100 -84 -157 -132 -56 -49 -107 -88
-113 -88 -9 0 -116 84 -140 110 -3 3 -63 55 -135 115 -161 135 -397 371 -448
447 -121 180 -113 399 19 532 67 67 196 93 287 58z"/>
<path d="M125 4931 c-54 -25 -84 -55 -107 -108 -17 -38 -19 -59 -14 -146 7
-130 15 -186 42 -290 53 -208 164 -415 310 -583 l67 -77 3 -386 c1 -212 5
-399 7 -416 3 -16 8 -45 11 -62 66 -367 255 -675 554 -906 50 -38 68 -58 60
-64 -7 -4 -38 -20 -68 -36 -199 -103 -439 -307 -587 -497 -174 -224 -319 -532
-359 -760 -3 -14 -7 -32 -9 -40 -3 -8 -7 -33 -10 -55 -4 -22 -8 -51 -11 -65
-2 -14 -7 -81 -9 -150 -5 -119 -4 -128 20 -175 26 -53 70 -89 126 -105 22 -6
1234 -10 3359 -10 3219 0 3326 1 3365 19 54 25 84 55 107 109 18 39 19 59 14
156 -15 280 -69 492 -187 736 -59 121 -156 276 -205 329 -13 14 -24 33 -25 41
0 8 -2 521 -4 1140 -1 619 -6 1143 -9 1165 -58 352 -187 609 -425 845 -196
195 -489 346 -746 387 -16 2 -41 7 -55 9 -61 13 -311 11 -400 -2 -474 -69
-874 -359 -1084 -787 -78 -160 -118 -291 -142 -467 -4 -30 -8 -561 -9 -1180
l-1 -1125 -58 -80 c-32 -44 -76 -113 -98 -152 -22 -40 -43 -73 -48 -73 -4 0
-15 15 -24 34 -25 53 -127 204 -193 286 -80 98 -207 223 -313 305 -82 65 -290
195 -310 195 -23 0 -6 19 58 65 98 71 248 227 318 330 126 187 193 349 240
580 21 107 25 733 5 850 -7 39 -14 81 -16 95 -3 14 -13 54 -24 90 -69 236
-184 437 -350 608 -221 228 -482 366 -816 428 -22 4 -461 9 -975 11 -896 3
-937 2 -975 -16z m1905 -404 c14 -3 48 -12 75 -18 240 -57 466 -217 610 -434
57 -85 127 -244 140 -318 l7 -37 -758 1 c-418 0 -781 4 -809 9 -89 15 -99 17
-178 44 -262 88 -476 274 -599 521 -50 100 -84 202 -79 238 1 10 1555 4 1591
-6z m3320 -10 c311 -71 570 -271 704 -542 42 -85 86 -209 86 -242 0 -13 -47
-14 -362 -10 -200 2 -379 8 -398 11 -254 52 -479 151 -661 293 -56 43 -250
245 -246 256 5 18 89 79 174 127 87 50 215 95 322 114 95 16 295 13 381 -7z
m-1034 -675 c112 -110 157 -148 264 -219 217 -145 484 -251 730 -289 116 -18
198 -22 499 -23 189 -1 347 -4 351 -6 4 -3 6 -78 5 -167 -2 -126 -8 -185 -25
-258 -94 -401 -399 -697 -810 -785 -66 -14 -324 -15 -383 -1 -213 49 -386 144
-532 290 -119 119 -200 252 -249 406 -44 138 -50 200 -50 530 0 302 5 355 41
480 16 56 50 140 56 140 2 0 48 -44 103 -98z m-3413 -426 c59 -26 229 -76 287
-83 19 -3 55 -9 80 -13 25 -5 395 -9 824 -10 428 0 782 -2 786 -5 13 -8 2
-318 -15 -399 -88 -421 -420 -745 -835 -814 -72 -11 -320 -7 -380 7 -207 49
-367 137 -512 282 -148 148 -254 343 -283 519 -4 25 -10 54 -12 65 -6 25 -12
457 -6 468 6 10 3 10 66 -17z m3410 -1484 c20 -13 37 -28 37 -31 0 -4 -21 -17
-47 -30 -27 -12 -75 -40 -109 -62 -33 -21 -65 -39 -70 -39 -5 0 -9 68 -9 163
l0 163 80 -69 c44 -38 97 -81 118 -95z m1853 -6 l0 -163 -51 32 c-27 18 -81
49 -118 70 -38 20 -67 38 -65 40 2 2 30 23 64 48 34 25 83 65 110 91 27 25 51
46 54 46 3 0 6 -74 6 -164z m-4116 -270 c8 -3 33 -8 54 -11 177 -25 382 -110
553 -227 166 -114 292 -244 400 -409 89 -137 180 -351 199 -469 3 -19 7 -37 9
-40 2 -3 6 -24 10 -48 l6 -42 -1427 0 -1427 0 7 50 c21 160 133 423 247 584
60 84 217 253 284 304 229 177 476 280 745 311 70 8 316 6 340 -3z m3277 1 c5
-3 27 -8 49 -11 106 -13 318 -85 423 -144 323 -178 559 -443 691 -776 33 -83
80 -256 80 -293 l0 -23 -1425 0 c-1133 0 -1425 3 -1425 13 1 28 40 189 65 262
32 97 108 251 165 336 235 349 585 572 995 633 86 12 363 15 382 3z"/>
</g>
</svg>
